<?xml version="1.0" ?><svg xmlns="http://www.w3.org/2000/svg" xmlns:xlink="http://www.w3.org/1999/xlink" version="1.1" viewBox="0 0 512 512" style="enable-background:new 0 0 512 512;" xml:space="preserve"><g id="_x31_7_x2C__Hamburger_x2C__Food_x2C__Hamburgers_x2C__Food_and_Restaurant_x2C__Salad"><g><polygon style="fill:#B9741B;" points="61,207.25 61,281 451,281 451,224.75 416.667,187.875   "/><path style="fill:#F2D137;" d="M451,151v73.75L415.99,216c-26.26-6.57-53.73-6.57-79.99,0h-0.01c-26.26,6.57-53.73,6.57-79.99,0    c-1.98-0.37-17.84-4.93-40-4.93c-13.44,0-26.87,1.65-40,4.93c-26.26,6.57-53.74,6.57-80,0l-35-8.75V151H451z"/><path style="fill:#FAF0AF;" d="M481,161c-16.538,0-435.228,0-450,0C31,78.176,98.158,11,181,11h150C413.84,11,481,78.16,481,161z"/><path style="fill:#86ED7F;" d="M471,271c16.57,0,30,13.43,30,30c0,8.28-3.36,15.78-8.79,21.21    c-9.683,9.683-21.51,8.722-21.84,8.79l-209.037,21.667L41,331c-16.57,0-30-13.43-30-30c0-16.56,13.44-30,30-30h20h390H471z"/><path style="fill:#FAF0AF;" d="M41,390.98V391c5.66,62.3,57.9,110,120.45,110h189.1c62.56,0,114.79-47.71,120.45-110l-215-30.25    L41,390.98z"/><path style="fill:#B9741B;" d="M500.99,360.13C501.47,377.09,487.85,391,471,391H281c-16.57,0-30,13.43-30,30v10    c0,10.85-8.44,20.08-19.28,20.46c-11.38,0.4-20.72-8.69-20.72-19.98V411c0-11.05-8.95-20-20-20c-11.04,0-20,8.96-20,20v9.52    c0,10.85-8.44,20.09-19.28,20.47c-11.38,0.4-20.72-8.7-20.72-19.99c0-16.56-13.439-30-30-30c-63.432,0-59.671,0.011-60-0.02    c-16.07-0.31-29.54-12.99-29.99-29.11C10.53,344.91,24.15,331,41,331h429.37C486.71,331,500.53,343.8,500.99,360.13z"/><g><g><path d="M497.252,331.141C505.667,323.803,511,313.016,511,301c0-22.056-17.944-40-40-40h-10v-90h20c5.522,0,10-4.478,10-10      C491,72.775,419.225,1,331,1H181C92.775,1,21,72.775,21,161c0,5.522,4.478,10,10,10h20v90H41c-22.056,0-40,17.944-40,40      c0,11.93,5.256,22.649,13.567,29.984c-8.593,7.576-13.9,18.771-13.55,31.162c0.512,18.175,13.704,33.469,30.996,37.692      C41.68,463.409,96.46,511,161.45,511h189.1c65.049,0,119.7-47.62,129.416-111.018c18.185-4.157,31.567-20.673,31.018-40.128      C510.663,348.491,505.387,338.252,497.252,331.141z M181,21h150c73.832,0,134.499,57.456,139.646,130      c-28.302,0-411.814,0-429.293,0C46.501,78.456,107.168,21,181,21z M441,171v40.943l-22.583-5.645      c-27.683-6.926-56.945-6.943-84.636-0.052c-70.614,16.006-88.663-17.823-160.208,0.052c-24.583,6.15-50.566,6.15-75.147,0      L71,199.442V171H441z M71,220.058l22.573,5.644c27.754,6.944,57.097,6.943,84.851,0.001      c66.218-16.544,87.082,17.736,160.003-0.001c24.579-6.151,50.56-6.147,75.139,0L441,232.558V261H71V220.058z M21,301      c0-11.028,8.972-20,20-20c25.571,0,406.742,0,430,0c11.028,0,20,8.972,20,20s-8.972,20-20,20c-19.991,0-408.503,0-430,0      C29.972,321,21,312.028,21,301z M350.55,491h-189.1c-54.052,0-99.115-37.985-108.966-90H101c11.028,0,20,8.972,20,20      c0,17.064,14.136,30.593,31.069,29.981C168.292,450.413,181,437.034,181,420.523V411c0-5.514,4.486-10,10-10s10,4.486,10,10      v20.477c0,17.042,14.098,30.574,31.069,29.981C248.292,460.89,261,447.511,261,431v-10c0-11.028,8.972-20,20-20h178.516      C449.666,453.014,404.603,491,350.55,491z M471,381H281c-22.056,0-40,17.944-40,40v10c0,5.587-4.32,10.284-9.631,10.47      c-5.599,0.25-10.369-4.281-10.369-9.993V411c0-16.542-13.458-30-30-30s-30,13.458-30,30v9.523c0,5.587-4.32,10.284-9.631,10.47      C145.817,431.238,141,426.761,141,421c0-22.056-17.944-40-40-40H41.629c-11.068,0-20.318-8.71-20.62-19.417      C20.689,350.272,29.753,341,41,341h429.371c11.068,0,20.318,8.71,20.62,19.417C491.311,371.728,482.247,381,471,381z"/><circle cx="141" cy="91.001" r="10"/><circle cx="211" cy="70.999" r="10"/><circle cx="256" cy="105.997" r="10"/><circle cx="301" cy="70.999" r="10"/><circle cx="371" cy="91.001" r="10"/></g></g></g></g><g id="Layer_1"/></svg>