<svg xmlns="http://www.w3.org/2000/svg" viewBox="0 0 25.14 23.47"><defs><style>.cls-1{fill:#e6e6e6;}.cls-1,.cls-3,.cls-4,.cls-5{fill-rule:evenodd;}.cls-2{fill:#4d443c;}.cls-3{fill:#fb7f16;}.cls-4{fill:#78c17c;}.cls-5{fill:#f9b916;}.cls-6{fill:#fff;}</style></defs><title>17_1</title><g id="Layer_2" data-name="Layer 2"><g id="Layer_1-2" data-name="Layer 1"><polygon class="cls-1" points="7.16 4.58 13.82 4.58 20.48 4.58 17.81 22.47 13.82 22.47 9.82 22.47 7.16 4.58"/><path class="cls-2" d="M13,10.88a.29.29,0,1,1-.5.27l-5-9.38L3.22.56A.28.28,0,1,1,3.37,0L7.8,1.24A.28.28,0,0,1,8,1.39Z"/><polygon class="cls-3" points="19.83 8.92 17.81 22.47 13.82 22.47 9.82 22.47 7.81 8.92 19.83 8.92"/><path class="cls-2" d="M13.82,4.86H7.49l2.58,17.32h7.5L20.14,4.86ZM7.16,4.29H20.47a.29.29,0,0,1,.29.29.27.27,0,0,1,0,.06L18.1,22.51a.29.29,0,0,1-.28.24h-8a.29.29,0,0,1-.28-.26L6.88,4.62a.29.29,0,0,1,.24-.32Z"/><path class="cls-2" d="M5,19.8a.53.53,0,0,0-.31-.09H4.54A.57.57,0,0,1,4.08,19a.54.54,0,0,0,0-.14.55.55,0,0,0,0-.11v0a.52.52,0,0,0-.23-.27.53.53,0,0,0-.35-.06.57.57,0,0,1-.57-.25.78.78,0,0,0-.91-.3H2a.77.77,0,0,0-.46,1h0a.75.75,0,0,0,.22.32h0a.56.56,0,0,1,.16.21.57.57,0,0,1-.3.75.77.77,0,0,0,.57,1.44l.09,0,0,0,.08-.05A.57.57,0,0,1,3,21.37a.52.52,0,0,0,.2.05.53.53,0,0,0,.4-.16.52.52,0,0,0,.12-.19h0v0a.57.57,0,0,1,.74-.33.53.53,0,0,0,.19,0l.15,0,.07,0a.53.53,0,0,0,.29-.63l0-.07A.52.52,0,0,0,5,19.8m.22-1.15a1.66,1.66,0,0,1,1,1h0a1.67,1.67,0,0,1-1,2.14h0a1.67,1.67,0,0,1-.59.1H4.59l-.14.17a1.68,1.68,0,0,1-1.26.5l-.31,0,0,0-.25.11a1.91,1.91,0,0,1-2-3.16,2,2,0,0,1-.1-.23,1.91,1.91,0,0,1,3.17-2,1.67,1.67,0,0,1,1.48,1.09l0,.06A1.65,1.65,0,0,1,5.2,18.65Z"/><path class="cls-4" d="M4.64,19.14a1.1,1.1,0,1,1-.35,2.12,1.1,1.1,0,0,1-1.51.63,1.34,1.34,0,1,1-1.39-2.26,1.34,1.34,0,1,1,2-1.77,1.1,1.1,0,0,1,1.26,1.28"/><path class="cls-2" d="M1.26,19.88a.28.28,0,0,1,.27-.5,3.23,3.23,0,0,0,.6.28,1.24,1.24,0,0,0,.59,0,.29.29,0,0,1,.1.56,1.79,1.79,0,0,1-.85,0,3.7,3.7,0,0,1-.71-.32"/><path class="cls-2" d="M3.27,18.41a.29.29,0,0,1,.51-.25,1.2,1.2,0,0,1,.18.64,1.26,1.26,0,0,1-.25.59.29.29,0,0,1-.48-.31.9.9,0,0,0,.16-.33.8.8,0,0,0-.12-.34"/><path class="cls-2" d="M20.35,16.13a.28.28,0,1,1-.56,0,6.42,6.42,0,0,1,.2-1.46,4.23,4.23,0,0,1,.64-1.37.28.28,0,0,1,.39-.06.29.29,0,0,1,.06.4,3.67,3.67,0,0,0-.55,1.19,5.87,5.87,0,0,0-.18,1.33"/><path class="cls-4" d="M17.95,14.5a2.36,2.36,0,0,1,2.13,1.62A2.36,2.36,0,0,1,22.2,14.5c4.76,0,2.31,8.69-.93,8.69a1.33,1.33,0,0,1-1.19-.91,1.33,1.33,0,0,1-1.19.91c-2.82,0-5.7-8.69-.93-8.69"/><path class="cls-2" d="M19,15.16a1.77,1.77,0,0,0-1.08-.38,2,2,0,0,0-2.1,1.45,4.25,4.25,0,0,0-.15,1.54A7.46,7.46,0,0,0,16,19.52c.57,1.79,1.72,3.38,2.83,3.38a.87.87,0,0,0,.53-.19,1.25,1.25,0,0,0,.4-.54A.28.28,0,0,1,20,22a.29.29,0,0,1,.37.16,1.25,1.25,0,0,0,.4.54.87.87,0,0,0,.53.19c1.26,0,2.41-1.52,3-3.25a7.12,7.12,0,0,0,.34-1.74,4.43,4.43,0,0,0-.16-1.57,2.12,2.12,0,0,0-2.21-1.56,1.77,1.77,0,0,0-1.08.38,2.46,2.46,0,0,0-.78,1.06.29.29,0,0,1-.53,0A2.46,2.46,0,0,0,19,15.16m-1.08-.94a2.34,2.34,0,0,1,1.43.5,2.88,2.88,0,0,1,.7.77,2.88,2.88,0,0,1,.7-.77,2.34,2.34,0,0,1,1.43-.5,2.65,2.65,0,0,1,2.75,2,5,5,0,0,1,.19,1.77,7.7,7.7,0,0,1-.36,1.88c-.62,1.94-2,3.65-3.51,3.65a1.44,1.44,0,0,1-.88-.31,1.7,1.7,0,0,1-.31-.31,1.7,1.7,0,0,1-.31.31,1.44,1.44,0,0,1-.88.31c-1.38,0-2.74-1.79-3.38-3.78a8,8,0,0,1-.37-1.88,4.8,4.8,0,0,1,.17-1.75A2.52,2.52,0,0,1,17.95,14.21Z"/><path class="cls-5" d="M6.51,17.84h.22a2.49,2.49,0,0,1,.59.13l9.62,2a1.56,1.56,0,0,1,0,3.11h-.08L6.45,22.86a2.51,2.51,0,0,1,.07-5"/><path class="cls-2" d="M6.61,18.13h-.1a2.22,2.22,0,0,0-.06,4.45c3.29.09,7.28.4,10.5.27a1.27,1.27,0,0,0,0-2.54h-.06l-9.61-2h0L7,18.18l-.27,0Zm-.1-.57h.26l.32,0,.31.08,9.57,2a1.84,1.84,0,0,1,1.27.54h0a1.84,1.84,0,0,1-1.3,3.15c-3.46-.17-7-.19-10.51-.28a2.79,2.79,0,0,1,.07-5.59Z"/><path class="cls-2" d="M7.14,19.79a.28.28,0,1,1-.56,0,2.5,2.5,0,0,1,.08-.56v0a1.68,1.68,0,0,1,.25-.52.28.28,0,0,1,.39-.06.29.29,0,0,1,.06.4,1.12,1.12,0,0,0-.16.34v0a1.93,1.93,0,0,0-.06.43"/><path class="cls-2" d="M9.17,21.73a.28.28,0,1,1-.53.18,2.48,2.48,0,0,1-.13-.55,1.69,1.69,0,0,1,0-.6.28.28,0,0,1,.34-.2.29.29,0,0,1,.2.35,1.13,1.13,0,0,0,0,.4,1.9,1.9,0,0,0,.1.42"/><path class="cls-2" d="M12.51,20.76a.28.28,0,1,1-.56.06,1.43,1.43,0,0,1,0-.33v0a1,1,0,0,1,.1-.32.28.28,0,0,1,.38-.12.29.29,0,0,1,.12.39.45.45,0,0,0,0,.14v0a.88.88,0,0,0,0,.2"/><path class="cls-6" d="M9.45,15.23a.29.29,0,0,1,.57-.08l.13.87a.29.29,0,1,1-.56.09Zm2.87-10a.29.29,0,1,1,0,.57H8.6l1,6.47a.29.29,0,1,1-.57.09L8,5.56a.28.28,0,0,1,0-.05.29.29,0,0,1,.29-.29Z"/></g></g></svg>