<?xml version="1.0" ?><svg xmlns="http://www.w3.org/2000/svg" xmlns:xlink="http://www.w3.org/1999/xlink" version="1.1" id="Layer_1" viewBox="0 0 1000 1000" style="enable-background:new 0 0 1000 1000;" xml:space="preserve"><style type="text/css">
	.st0{fill:#12131A;}
	.st1{fill:#ED892F;}
</style><g><g><path class="st0" d="M779.97,848.34h-175.8c-37.76,0-68.37-30.6-68.37-68.37v-175.8c0-37.76,30.6-68.37,68.37-68.37h175.8    c37.76,0,68.37,30.6,68.37,68.37v175.8C848.34,817.74,817.58,848.34,779.97,848.34z M604.01,574.88c-16.11,0-29.3,13.18-29.3,29.3    v175.8c0,16.11,13.18,29.3,29.3,29.3h175.8c16.11,0,29.3-13.18,29.3-29.3v-175.8c0-16.11-13.18-29.3-29.3-29.3H604.01z"/></g><g><path class="st1" d="M395.99,846.71H220.03c-36.79,0-66.74-29.95-66.74-66.74v-175.8c0-36.79,29.95-66.74,66.74-66.74h175.8    c36.79,0,66.74,29.95,66.74,66.74v175.8C462.72,816.76,432.77,846.71,395.99,846.71z M220.03,573.25    c-17.09,0-30.93,13.84-30.93,30.93v175.8c0,17.09,13.84,30.93,30.93,30.93h175.8c17.09,0,30.93-13.84,30.93-30.93v-175.8    c0-17.09-13.84-30.93-30.93-30.93H220.03z"/></g><g><path class="st1" d="M779.97,462.56h-175.8c-36.79,0-66.74-29.95-66.74-66.74v-175.8c0-36.79,29.95-66.74,66.74-66.74h175.8    c36.79,0,66.74,29.95,66.74,66.74v175.8C846.71,432.77,816.76,462.56,779.97,462.56z M604.01,189.1    c-17.09,0-30.93,13.84-30.93,30.93v175.8c0,17.09,13.84,30.93,30.93,30.93h175.8c17.09,0,30.93-13.84,30.93-30.93v-175.8    c0-17.09-13.84-30.93-30.93-30.93H604.01z"/></g><g><path class="st0" d="M395.99,464.19H220.03c-37.76,0-68.37-30.6-68.37-68.37v-175.8c0-37.76,30.6-68.37,68.37-68.37h175.8    c37.76,0,68.37,30.6,68.37,68.37v175.8C464.35,433.59,433.59,464.19,395.99,464.19z M220.03,190.73c-16.11,0-29.3,13.18-29.3,29.3    v175.8c0,16.11,13.18,29.3,29.3,29.3h175.8c16.11,0,29.3-13.18,29.3-29.3v-175.8c0-16.11-13.18-29.3-29.3-29.3H220.03z"/></g></g></svg>