<?xml version="1.0" ?><!DOCTYPE svg  PUBLIC '-//W3C//DTD SVG 1.1//EN'  'http://www.w3.org/Graphics/SVG/1.1/DTD/svg11.dtd'><svg height="100%" style="fill-rule:evenodd;clip-rule:evenodd;stroke-linejoin:round;stroke-miterlimit:2;" version="1.1" viewBox="0 0 32 32" width="100%" xml:space="preserve" xmlns="http://www.w3.org/2000/svg" xmlns:serif="http://www.serif.com/" xmlns:xlink="http://www.w3.org/1999/xlink"><path d="M14.995,11l-0.003,0c-1.656,0 -3,1.344 -3,3c-0,1.656 1.344,3 3,3c-0,0 2,0 2,0c0.552,0 1,0.448 1,1c-0,0.552 -0.448,1 -1,1c-0,0 -3,0 -3,0c-0.552,0 -1,0.448 -1,1c-0,0.552 0.448,1 1,1l1.003,0l0,1c0,0.552 0.448,1 1,1c0.552,-0 1,-0.448 1,-1l0,-1c1.654,-0.002 2.997,-1.345 2.997,-3c-0,-1.656 -1.344,-3 -3,-3c-0,0 -2,0 -2,0c-0.552,0 -1,-0.448 -1,-1c-0,-0.552 0.448,-1 1,-1l3,0c0.552,0 1,-0.448 1,-1c-0,-0.552 -0.448,-1 -1,-1l-0.997,0l0,-1c0,-0.552 -0.448,-1 -1,-1c-0.552,-0 -1,0.448 -1,1l0,1Z"/><path d="M10.303,7l17.689,-0c0.265,-0 0.519,0.105 0.707,0.293c0.187,0.187 0.293,0.442 0.293,0.707l-0,18c-0,0.552 0.448,1 1,1c0.552,0 1,-0.448 1,-1l-0,-18c-0,-0.796 -0.316,-1.559 -0.879,-2.121c-0.563,-0.563 -1.326,-0.879 -2.121,-0.879l-17.689,-0l1.752,-1.168c0.459,-0.306 0.583,-0.927 0.277,-1.387c-0.306,-0.459 -0.927,-0.583 -1.387,-0.277l-4.5,3c-0.278,0.185 -0.445,0.498 -0.445,0.832c-0,0.334 0.167,0.647 0.445,0.832l4.5,3c0.46,0.306 1.081,0.182 1.387,-0.277c0.306,-0.46 0.182,-1.081 -0.277,-1.387l-1.752,-1.168Z"/><path d="M21.697,27l-1.752,1.168c-0.459,0.306 -0.583,0.927 -0.277,1.387c0.306,0.459 0.927,0.583 1.387,0.277l4.5,-3c0.278,-0.185 0.445,-0.498 0.445,-0.832c0,-0.334 -0.167,-0.647 -0.445,-0.832l-4.5,-3c-0.46,-0.306 -1.081,-0.182 -1.387,0.277c-0.306,0.46 -0.182,1.081 0.277,1.387l1.752,1.168l-17.705,0c-0.265,-0 -0.52,-0.105 -0.707,-0.293c-0.188,-0.187 -0.293,-0.442 -0.293,-0.707l-0,-18c-0,-0.552 -0.448,-1 -1,-1c-0.552,-0 -1,0.448 -1,1l-0,18c-0,0.796 0.316,1.559 0.878,2.121c0.563,0.563 1.326,0.879 2.122,0.879l17.705,0Z"/><g id="Icon"/></svg>